<svg xmlns="http://www.w3.org/2000/svg" width="1280" height="720" viewBox="0 0 1280 720">
  <defs>
    <linearGradient id="bg" x1="0" y1="0" x2="1" y2="1">
      <stop offset="0%" stop-color="#14070a"/>
      <stop offset="100%" stop-color="#4a121d"/>
    </linearGradient>
    <linearGradient id="box" x1="0" y1="0" x2="1" y2="1">
      <stop offset="0%" stop-color="#ff6a80"/>
      <stop offset="100%" stop-color="#ff8a65"/>
    </linearGradient>
  </defs>
  <rect width="1280" height="720" fill="url(#bg)"/>
  <g fill="none" stroke="url(#box)" stroke-width="3" opacity="0.9">
    <rect x="180" y="240" width="240" height="140" rx="16"/>
    <rect x="500" y="180" width="280" height="170" rx="16"/>
    <rect x="860" y="250" width="230" height="130" rx="16"/>
    <rect x="350" y="430" width="260" height="140" rx="16"/>
    <rect x="700" y="430" width="300" height="140" rx="16"/>
    <line x1="420" y1="310" x2="500" y2="265"/>
    <line x1="780" y1="265" x2="860" y2="315"/>
    <line x1="560" y1="350" x2="500" y2="430"/>
    <line x1="720" y1="350" x2="780" y2="430"/>
  </g>
  <g fill="#ffdce2" font-family="Space Grotesk, Arial, sans-serif" font-size="22">
    <text x="252" y="320">nginx</text>
    <text x="615" y="270">wordpress</text>
    <text x="942" y="320">mariadb</text>
    <text x="442" y="512">volumes</text>
    <text x="820" y="512">networks</text>
  </g>
  <text x="84" y="104" fill="#ffe7eb" font-size="66" font-family="Space Grotesk, Arial, sans-serif" font-weight="700">Inception</text>
  <text x="86" y="148" fill="#ff9eac" font-size="24" font-family="Space Grotesk, Arial, sans-serif">Docker · Compose · Service Orchestration</text>
</svg>
